<?xml version="1.0" encoding="iso-8859-1"?>
<!-- Uploaded to: SVG Repo, www.svgrepo.com, Generator: SVG Repo Mixer Tools -->
<!DOCTYPE svg PUBLIC "-//W3C//DTD SVG 1.1//EN" "http://www.w3.org/Graphics/SVG/1.1/DTD/svg11.dtd">
<svg version="1.1" id="Capa_1" xmlns="http://www.w3.org/2000/svg" xmlns:xlink="http://www.w3.org/1999/xlink"
	 viewBox="0 0 295.67 295.67" xml:space="preserve">
<path d="M270.293,201.408c-2.279-1.316-4.872-2.013-7.497-2.013c-2.537,0-4.988,0.654-7.153,1.829l-11.163-6.445l23.107-11.26
	c3.724-1.815,5.271-6.304,3.457-10.027c-1.814-3.725-6.305-5.273-10.027-3.457l-32.209,15.695l-11.173-6.45l23.106-11.26
	c3.724-1.814,5.271-6.304,3.457-10.027c-1.814-3.724-6.305-5.274-10.027-3.457l-32.21,15.694l-23.666-13.663l-0.004-17.848
	l23.047-13.306l31.923,16.302c1.093,0.558,2.258,0.822,3.405,0.822c2.729,0,5.359-1.494,6.686-4.091
	c1.884-3.689,0.42-8.207-3.268-10.091l-23.266-11.88l11.365-6.563l31.93,16.301c1.092,0.558,2.257,0.822,3.404,0.822
	c2.728,0,5.36-1.495,6.685-4.092c1.884-3.689,0.42-8.207-3.27-10.09l-23.269-11.879l11.479-6.627
	c2.321,1.417,5.019,2.213,7.82,2.213c2.624,0,5.215-0.695,7.493-2.011c7.162-4.135,9.627-13.326,5.493-20.492
	c-2.671-4.626-7.65-7.499-12.996-7.499c-2.624,0-5.215,0.695-7.49,2.009c-3.472,2.003-5.956,5.238-6.994,9.11
	c-0.31,1.154-0.462,2.323-0.495,3.488l-11.16,6.443l1.802-25.643c0.29-4.132-2.824-7.717-6.956-8.007
	c-4.128-0.3-7.717,2.824-8.007,6.956l-2.511,35.742l-11.173,6.45l1.803-25.641c0.291-4.133-2.823-7.718-6.955-8.008
	c-4.148-0.295-7.718,2.824-8.008,6.955l-2.513,35.742l-23.366,13.491l-15.427-9.574v-26l29.748-19.283
	c3.475-2.253,4.466-6.896,2.212-10.373c-2.252-3.476-6.896-4.467-10.373-2.213L155.502,72.2V59.076l29.748-19.283
	c3.475-2.253,4.466-6.896,2.212-10.373c-2.252-3.476-6.896-4.467-10.373-2.213L155.502,41.2V27.971
	c4-2.599,7.499-7.433,7.499-12.971c0-8.271-6.728-15-15-15s-15,6.729-15,15c0,5.538,2.5,10.372,7.5,12.971v12.918l-21.637-14.605
	c-3.434-2.316-8.094-1.413-10.413,2.021c-2.317,3.434-1.412,8.095,2.021,10.413l30.029,20.27v12.902l-21.637-14.606
	c-3.434-2.316-8.094-1.413-10.413,2.021c-2.317,3.434-1.412,8.095,2.021,10.413l30.029,20.27v25.977l-16.11,9.484l-22.743-13.13
	l-1.826-35.405c-0.213-4.136-3.719-7.304-7.878-7.104c-4.137,0.214-7.316,3.74-7.103,7.877l1.325,25.693l-11.366-6.563
	l-1.827-35.404c-0.214-4.136-3.708-7.324-7.876-7.104c-4.137,0.214-7.317,3.74-7.104,7.877l1.325,25.693l-11.457-6.615
	c-0.013-5.175-2.687-10.212-7.482-12.981c-2.278-1.316-4.869-2.011-7.492-2.011c-5.347,0-10.328,2.875-12.999,7.502
	c-4.135,7.162-1.672,16.354,5.49,20.488c2.278,1.316,4.869,2.012,7.494,2.012c2.672,0,5.252-0.718,7.499-2.014l11.178,6.453
	l-23.466,11.436c-3.724,1.814-5.271,6.304-3.457,10.027c1.299,2.666,3.969,4.217,6.748,4.217c1.103,0,2.222-0.244,3.279-0.76
	l32.568-15.871l11.174,6.451l-23.466,11.436c-3.724,1.814-5.271,6.304-3.457,10.027c1.299,2.666,3.969,4.217,6.748,4.217
	c1.102,0,2.222-0.244,3.279-0.76l32.568-15.871l22.812,13.17l0.028,18.405l-22.927,13.237l-31.574-16.121
	c-3.689-1.885-8.206-0.42-10.09,3.27c-1.884,3.688-0.42,8.206,3.27,10.09l22.913,11.699l-11.366,6.563l-31.574-16.12
	c-3.687-1.885-8.206-0.42-10.09,3.27c-1.884,3.688-0.42,8.206,3.27,10.09l22.914,11.699l-11.446,6.608
	c-2.248-1.297-4.829-2.015-7.502-2.015c-2.623,0-5.213,0.694-7.492,2.01c-7.163,4.136-9.627,13.328-5.491,20.492
	c2.671,4.626,7.65,7.499,12.996,7.499c2.624,0,5.215-0.695,7.49-2.009c3.471-2.002,5.954-5.236,6.992-9.108
	c0.344-1.282,0.499-2.583,0.502-3.877l11.181-6.455l-1.829,26.041c-0.29,4.132,2.824,7.717,6.956,8.007
	c0.179,0.013,0.356,0.018,0.533,0.018c3.902,0,7.196-3.021,7.474-6.975l2.539-36.141l11.175-6.451l-1.831,26.04
	c-0.291,4.133,2.823,7.718,6.955,8.008c0.18,0.013,0.357,0.018,0.534,0.018c3.902,0,7.196-3.021,7.474-6.974l2.541-36.142
	l22.93-13.239l16.167,9.089v26.418l-30.081,19.497c-3.476,2.254-4.468,6.897-2.215,10.373c2.254,3.477,6.9,4.466,10.373,2.215
	l21.922-14.21v13.125l-30.081,19.5c-3.476,2.253-4.468,6.896-2.214,10.373c2.253,3.476,6.898,4.467,10.373,2.213l21.921-14.211
	v13.244c-5,2.547-7.831,7.495-7.835,13.172c0,8.272,6.73,15.002,15.002,15.002c8.27,0,14.999-6.729,14.999-14.996
	c0.002-4.008-1.558-7.776-4.393-10.611c-0.845-0.846-1.774-1.563-2.774-2.173v-12.886l21.304,14.38
	c1.287,0.869,2.745,1.285,4.189,1.285c2.408,0,4.775-1.158,6.223-3.305c2.318-3.434,1.413-8.095-2.02-10.412l-29.696-20.046v-12.902
	l21.304,14.381c1.287,0.869,2.744,1.285,4.189,1.285c2.408,0,4.775-1.158,6.223-3.305c2.318-3.434,1.413-8.095-2.02-10.412
	l-29.696-20.047v-27.14l15.476-9.103l23.024,13.293l1.845,35.798c0.207,4.006,3.518,7.114,7.483,7.114
	c0.131,0,0.262-0.003,0.393-0.01c4.137-0.213,7.317-3.739,7.104-7.876l-1.344-26.089l11.365,6.561l1.848,35.802
	c0.207,4.005,3.518,7.113,7.483,7.113c0.131,0,0.262-0.003,0.394-0.01c4.137-0.214,7.316-3.74,7.104-7.877l-1.347-26.09
	l11.469,6.621c-0.125,5.311,2.576,10.531,7.491,13.37c2.278,1.315,4.869,2.011,7.493,2.011c5.346,0,10.327-2.874,13-7.501
	c2.003-3.47,2.535-7.512,1.497-11.383C276.242,206.644,273.76,203.41,270.293,201.408z"/>
	 <style>
        path { fill: #000; }
        @media (prefers-color-scheme: dark) {
            path { fill: #FFF; }
        }
    </style>
</svg>
